<?xml version="1.0" encoding="utf-8"?>
<!-- Generator: Adobe Illustrator 16.0.0, SVG Export Plug-In . SVG Version: 6.00 Build 0)  -->
<!DOCTYPE svg PUBLIC "-//W3C//DTD SVG 1.1//EN" "http://www.w3.org/Graphics/SVG/1.1/DTD/svg11.dtd">
<svg version="1.1" id="Layer_1" xmlns="http://www.w3.org/2000/svg" xmlns:xlink="http://www.w3.org/1999/xlink" x="0px" y="0px"
	 width="400.001px" height="427.703px" viewBox="0 0 400.001 427.703" enable-background="new 0 0 400.001 427.703"
	 xml:space="preserve">
<g id="simbolo_7_">
	
		<linearGradient id="SVGID_1_" gradientUnits="userSpaceOnUse" x1="466.1895" y1="-55.9092" x2="644.239" y2="-277.3302" gradientTransform="matrix(0.9981 -0.0616 -0.0616 -0.9981 -232.8167 177.6635)">
		<stop  offset="0" style="stop-color:#07708F"/>
		<stop  offset="1" style="stop-color:#0091BB"/>
	</linearGradient>
	<path fill="url(#SVGID_1_)" d="M242.142,138.608c-21.862,17.521-34.958,39.563-40.068,60.849
		c-1.191,4.981-1.944,9.918-2.271,14.754c-0.03,0.562-0.111,1.612-0.144,2.767c0.003-0.406,0.003-0.801,0.003-1.201l-0.014,0.036
		c0.01,0.629-0.017,1.284-0.017,1.923c-0.006,0.781,0.051,1.852,0.051,2.131c0.13,6.718,0.515,13.189,1.221,19.299
		c13.686,118.462,122.842,196.323,181.604,153.578c5.342-3.888,9.335-8.299,12.146-13.163c1.876-3.25,3.229-6.697,4.102-10.349
		c11.502-47.89-59.31-128.43-100.137-202.768c-9.779-17.833-16.658-33.923-21.153-48.454
		C263.833,123.615,252.085,130.644,242.142,138.608z"/>
	
		<radialGradient id="SVGID_2_" cx="464.1924" cy="23.8667" r="175.413" gradientTransform="matrix(0.9981 -0.0616 -0.0616 -0.9981 -232.8167 177.6635)" gradientUnits="userSpaceOnUse">
		<stop  offset="0" style="stop-color:#01B7CB"/>
		<stop  offset="1" style="stop-color:#038DBB"/>
	</radialGradient>
	<path fill="url(#SVGID_2_)" d="M293.551,18.443c-0.794,0.782-1.603,1.417-2.456,1.869c-45.999,34.519-72.323,85.434-84.052,134.289
		c-5.277,22.034-7.606,43.646-7.419,63.136c0.147-5.931,0.957-12.072,2.446-18.279c5.109-21.286,18.204-43.328,40.062-60.849
		c9.942-7.965,21.693-14.994,35.331-20.598h0.011c33.591-13.799,89.941-32.525,99.926-65.48c0.372-1.224,0.703-2.439,0.996-3.645
		c1.954-8.105,2.083-15.867,0.535-22.727C372.997-0.047,342.342-13.021,293.551,18.443z"/>
	
		<linearGradient id="SVGID_3_" gradientUnits="userSpaceOnUse" x1="1444.1572" y1="462.7417" x2="1622.2074" y2="241.3206" gradientTransform="matrix(-0.9981 0.0616 0.0616 0.9981 1576.9807 -327.8656)">
		<stop  offset="0" style="stop-color:#07708F"/>
		<stop  offset="1" style="stop-color:#0091BB"/>
	</linearGradient>
	<path fill="url(#SVGID_3_)" d="M157.867,289.086c21.857-17.521,34.948-39.552,40.058-60.838c1.191-4.991,1.944-9.931,2.272-14.76
		c0.043-0.556,0.124-1.617,0.147-2.761c0,0.396-0.01,0.797-0.01,1.201l0.023-0.025c-0.01-0.651,0.01-1.305,0.01-1.939
		c0.014-0.775-0.04-1.836-0.047-2.127c-0.124-6.717-0.518-13.184-1.214-19.3C185.413,70.066,76.264-7.786,17.496,34.973
		c-5.344,3.881-9.327,8.279-12.14,13.15c-1.887,3.252-3.229,6.707-4.111,10.359c-11.491,47.877,59.319,128.42,100.147,202.759
		c9.773,17.832,16.651,33.923,21.144,48.455C136.166,304.103,147.927,297.061,157.867,289.086z"/>
	
		<radialGradient id="SVGID_4_" cx="1442.1562" cy="542.5044" r="175.4182" gradientTransform="matrix(-0.9981 0.0616 0.0616 0.9981 1576.9807 -327.8656)" gradientUnits="userSpaceOnUse">
		<stop  offset="0" style="stop-color:#01B7CB"/>
		<stop  offset="1" style="stop-color:#038DBB"/>
	</radialGradient>
	<path fill="url(#SVGID_4_)" d="M106.459,409.255c0.775-0.779,1.597-1.408,2.45-1.868c46-34.514,72.32-85.427,84.04-134.282
		c5.293-22.021,7.606-43.645,7.425-63.147c-0.157,5.938-0.957,12.083-2.443,18.291c-5.11,21.286-18.204,43.317-40.064,60.838
		c-9.94,7.975-21.701,15.006-35.327,20.601l0,0c-33.6,13.796-89.946,32.528-99.95,65.483c-0.363,1.225-0.686,2.436-0.982,3.651
		c-1.949,8.101-2.084,15.867-0.53,22.72C27.009,427.752,57.663,440.724,106.459,409.255z"/>
</g>
</svg>
